<svg width="325" height="57" viewBox="0 0 325 57" fill="none" xmlns="http://www.w3.org/2000/svg">
<path d="M2.88534 6.70533C2.75035 6.2129 2.63247 5.73546 2.53234 5.27452C11.419 17.6684 22.3178 25.3603 27.2159 27.8867C27.597 28.1118 28.2191 28.6443 28.9722 29.5098C29.7188 30.3678 30.523 31.4707 31.262 32.7246C32.7531 35.2548 33.8817 38.2327 33.8888 40.9368C33.7382 45.0633 31.7496 48.6066 29.6964 51.2394C28.8704 52.2987 28.0488 53.1915 27.3588 53.8978C26.2515 51.3194 24.3749 49.4738 22.5102 48.1736C20.3376 46.6587 18.0765 45.815 16.9282 45.3866C16.8193 45.3459 16.7205 45.309 16.6326 45.2757C11.7385 42.9496 9.03891 40.6157 7.625 38.7482C7.48562 38.5641 7.35938 38.3857 7.24513 38.2131C8.30117 38.6608 9.38868 38.9558 10.4213 39.1444C12.7126 39.5629 14.9022 39.4896 16.2678 39.2823L21.131 38.5442L16.6834 36.443C8.40564 32.5323 4.4184 28.5871 2.68557 25.4295C1.91055 24.0172 1.58066 22.7587 1.51323 21.7C2.55464 22.9171 3.72995 23.9607 4.8831 24.8278C6.73693 26.2218 8.60653 27.2146 9.94173 27.7752C9.95361 27.786 9.96604 27.7969 9.97899 27.808C10.0228 27.8454 10.1741 27.9745 10.4007 28.0692C10.4759 28.1005 10.6947 28.1785 10.9742 28.1853L15.4033 29.9252L12.389 26.0863C12.38 26.0614 12.3726 26.0426 12.368 26.031C12.3672 26.0288 12.3664 26.0268 12.3658 26.0252L12.1228 25.4023L11.7645 25.2673C10.8255 23.9138 8.24212 19.6685 5.96529 14.7767C4.72029 12.1019 3.59375 9.28945 2.88534 6.70533ZM11.3642 25.1154C11.3629 25.1149 11.3617 25.1144 11.3604 25.1139C10.7989 24.893 10.0598 24.5491 9.234 24.0875L11.3642 25.1154Z" stroke="#00FFFF" stroke-width="3"/>
<path d="M81.1294 6.70938C81.2575 6.23687 81.37 5.77806 81.4665 5.3343C72.6863 17.689 61.9364 25.3595 57.0973 27.8833C56.7228 28.1071 56.1087 28.6382 55.364 29.5036C54.6258 30.3613 53.8304 31.4643 53.0994 32.7184C51.6247 35.2486 50.5071 38.2289 50.5001 40.9371C50.6491 45.0685 52.6179 48.6138 54.6479 51.2458C55.455 52.2923 56.2578 53.1763 56.9349 53.8785C58.0307 51.3147 59.8803 49.476 61.7214 48.1781C63.8723 46.6616 66.1112 45.8169 67.2469 45.3885C67.3542 45.348 67.4516 45.3113 67.5382 45.278C72.3751 42.9535 75.0431 40.6213 76.4409 38.7546C76.5772 38.5725 76.7008 38.3959 76.8129 38.2251C75.7771 38.6656 74.7115 38.9569 73.6991 39.1439C71.4292 39.5631 69.2599 39.4897 67.9061 39.2819L63.0953 38.5437L67.4871 36.4458C75.6701 32.5369 79.6122 28.5936 81.3262 25.4356C82.0846 24.0381 82.4126 22.7902 82.4845 21.737C81.4635 22.9359 80.3147 23.9655 79.1868 24.823C77.3539 26.2166 75.5049 27.2098 74.1827 27.7715C74.1715 27.7818 74.1598 27.7922 74.1476 27.8027C74.1044 27.84 73.9529 27.9708 73.7254 28.0669C73.6495 28.0989 73.4314 28.177 73.1531 28.1851L68.7445 29.9361L71.7295 26.0923C71.7385 26.067 71.746 26.0479 71.7505 26.0361C71.7514 26.034 71.7521 26.032 71.7528 26.0304L71.9934 25.4065L72.3485 25.2713C73.2785 23.9152 75.832 19.6717 78.0827 14.7825C79.3141 12.1074 80.4285 9.29444 81.1294 6.70938ZM72.7494 25.1174C72.7511 25.1168 72.7528 25.1161 72.7545 25.1154C73.3127 24.8934 74.049 24.5465 74.8716 24.0806L72.7494 25.1174Z" stroke="#00FFFF" stroke-width="3"/>
<circle cx="41.9253" cy="29.7635" r="20.7573" fill="#00FFFF"/>
<path d="M42.675 40.3485C42.2547 40.3485 41.8303 40.3485 41.4099 40.3485C41.161 40.3159 40.912 40.2914 40.6631 40.2546C39.3735 40.071 38.1533 39.6751 37.0106 39.0467C36.9249 38.9977 36.7902 38.9895 36.6923 39.0181C36.1903 39.165 35.6965 39.3323 35.1986 39.4915C34.3334 39.7813 33.4642 40.0628 32.5949 40.3485C32.4847 40.3485 32.3786 40.3485 32.2684 40.3485C31.942 40.2383 31.7257 40.022 31.6155 39.6955C31.6155 39.5854 31.6155 39.4793 31.6155 39.3691C31.6236 39.3609 31.64 39.3527 31.644 39.3405C32.0726 37.9978 32.5011 36.6511 32.9377 35.3085C32.9867 35.1615 32.9785 35.0473 32.9051 34.9085C32.3337 33.876 31.9501 32.7823 31.7665 31.6151C31.7093 31.2642 31.6645 30.9091 31.6155 30.5541C31.6155 30.1337 31.6155 29.7093 31.6155 29.289C31.6277 29.2318 31.644 29.1706 31.6481 29.1135C31.7502 27.6565 32.1378 26.2731 32.8398 24.9957C34.464 22.0533 36.933 20.2536 40.2427 19.6169C40.6427 19.5394 41.0467 19.5068 41.4507 19.4537C41.8588 19.4537 42.2669 19.4537 42.675 19.4537C42.7281 19.4659 42.7811 19.4823 42.8342 19.4864C44.2993 19.5843 45.6868 19.972 46.9683 20.678C49.9107 22.3063 51.7145 24.7754 52.347 28.081C52.4246 28.4809 52.4572 28.8849 52.5103 29.289C52.5103 29.6971 52.5103 30.1052 52.5103 30.5133C52.498 30.5704 52.4817 30.6316 52.4776 30.6887C52.3756 32.1457 51.992 33.5291 51.286 34.8065C49.6617 37.7489 47.1927 39.5486 43.883 40.1853C43.4831 40.2587 43.0791 40.2955 42.675 40.3485ZM33.7009 38.2672C34.5865 37.9815 35.4353 37.7448 36.2597 37.4347C36.8229 37.2225 37.2718 37.3041 37.7941 37.5979C39.6918 38.6671 41.7282 38.9732 43.8626 38.5325C46.0786 38.0713 47.862 36.9001 49.1883 35.0718C50.7146 32.9741 51.2044 30.6275 50.682 28.0932C50.2331 25.9058 49.07 24.151 47.2784 22.8205C45.3399 21.3799 43.1525 20.8453 40.7733 21.1922C38.3736 21.5432 36.4392 22.7267 34.9946 24.6733C33.4315 26.775 32.9459 29.1339 33.4397 31.6968C33.6315 32.6844 34.0029 33.6108 34.5293 34.4678C34.713 34.7698 34.7497 35.0677 34.6273 35.3982C34.5293 35.6594 34.4518 35.9247 34.3661 36.19C34.1457 36.8674 33.9294 37.5449 33.7009 38.2672Z" fill="black"/>
<path d="M37.986 30.9213C37.4269 30.9254 36.9576 30.4561 36.9617 29.897C36.9658 29.3461 37.4229 28.8849 37.9738 28.8808C38.5329 28.8767 39.0022 29.3461 38.9981 29.9052C38.9981 30.4561 38.5411 30.9173 37.986 30.9213Z" fill="black"/>
<path d="M43.0833 29.9011C43.0833 30.4602 42.614 30.9254 42.0549 30.9213C41.5039 30.9172 41.0469 30.4561 41.0469 29.9051C41.0469 29.346 41.5162 28.8808 42.0753 28.8849C42.6262 28.889 43.0792 29.346 43.0833 29.9011Z" fill="black"/>
<path d="M47.1643 29.8929C47.1684 30.452 46.7032 30.9213 46.14 30.9173C45.589 30.9132 45.1279 30.4561 45.1238 29.9052C45.1197 29.3461 45.585 28.8767 46.1481 28.8808C46.6991 28.8849 47.1602 29.342 47.1643 29.8929Z" fill="black"/>
<path d="M91.2002 38.1V21.8H96.7002L103.7 31.5L110.7 21.8H116.3V38H111.4V27.7L105.3 36.1H102.2L96.1002 27.7V38.1H91.2002Z" fill="#00FFFF"/>
<path d="M134.7 21.8H139.6V34.4L135.9 38.1H123.5L119.8 34.4V21.8H124.7V34.4H134.6V21.8H134.7Z" fill="#00FFFF"/>
<path d="M143.1 38.1V21.8H148.6L155.6 31.5L162.6 21.8H168.2V38H163.3V27.7L157.2 36.1H154L147.9 27.7V38.1H143.1Z" fill="#00FFFF"/>
<path d="M171.9 21.8H189.1L192.8 26.8L190.5 29.9L192.8 33L189.1 38H171.9V21.8ZM186.3 28.3L187.5 26.8L186.3 25.5H176.9V28.4H186.3V28.3ZM186.3 34.4L187.5 33.1L186.3 31.6H176.9V34.4H186.3Z" fill="#00FFFF"/>
<path d="M200.6 34.4H214.5L210.9 38H195.7V21.8L200.6 19V34.4Z" fill="#00FFFF"/>
<path d="M216.7 21.8H236.2L232.6 25.4H221.7V28.3H233.9L230.6 31.6H221.7V34.4H235.6L232 38H216.8V21.8H216.7Z" fill="#00FFFF"/>
<path d="M242.8 25.5V34.5H256.7L253.1 38.1H241.6L237.9 34.5V25.5L241.6 21.8H257.3L253.7 25.4H242.8V25.5Z" fill="#00FFFF"/>
<path d="M259.6 21.8H264.5V28.3H274.2V21.8H279.1V38.1H274.2V31.6H264.5V38.1H259.6V21.8Z" fill="#00FFFF"/>
<path d="M282.6 38.1V25.5L286.3 21.9H298.6L302.3 25.5V38.1H297.4V33.5H287.5V38.2L282.6 38.1ZM287.6 25.5V29.9H297.5V25.5H287.6Z" fill="#00FFFF"/>
<path d="M302.5 21.8H324.2L320.6 25.4H315.8V38H310.9V25.5H306.1L302.5 21.8Z" fill="#00FFFF"/>
</svg>
