<svg width="40" height="40" viewBox="0 0 40 40" fill="none" xmlns="http://www.w3.org/2000/svg">
<path d="M4.06464 11.7424C3.96085 11.3638 3.88127 11.0048 3.82835 10.6702C7.46461 15.9099 12.0478 19.1525 14.0678 20.1936C14.2368 20.2927 14.4986 20.5188 14.8078 20.8741C15.1145 21.2266 15.4438 21.6784 15.746 22.1913C16.355 23.2245 16.8217 24.4499 16.8241 25.5714C16.7626 27.2745 15.9426 28.731 15.1045 29.8056C14.72 30.2988 14.3381 30.7032 14.0362 31.0066C13.6083 29.9081 12.8293 29.13 12.0501 28.5867C11.1826 27.9818 10.2799 27.6449 9.81472 27.4712C9.76881 27.4541 9.72717 27.4385 9.69024 27.4245C7.69632 26.4774 6.58695 25.5224 6.00098 24.7485C5.85825 24.5599 5.74793 24.3844 5.66334 24.2237C6.1751 24.4844 6.72166 24.6445 7.23749 24.7387C8.15226 24.9058 9.02655 24.8763 9.56859 24.794L11.1897 24.548L9.70714 23.8476C6.3453 22.2594 4.70945 20.6496 3.99319 19.3444C3.59463 18.6181 3.47775 17.9842 3.50338 17.4809C3.96206 18.0666 4.50629 18.5616 5.04098 18.9637C5.79225 19.5286 6.54958 19.9287 7.08305 20.1509C7.09084 20.1583 7.09946 20.1662 7.10882 20.1742C7.12414 20.1873 7.17521 20.2307 7.25121 20.2624C7.27824 20.2737 7.36013 20.3028 7.46289 20.3014L8.90707 20.8687L7.91935 19.6108C7.91377 19.5941 7.90889 19.5817 7.90624 19.5749L7.90546 19.5729L7.82448 19.3653L7.69315 19.3158C7.32211 18.7881 6.25482 17.0401 5.31748 15.0263C4.81216 13.9406 4.35355 12.7963 4.06464 11.7424ZM7.56071 19.2654C7.56013 19.2652 7.55956 19.265 7.55899 19.2648C7.36547 19.1887 7.12186 19.0776 6.84961 18.9328L7.56071 19.2654Z" stroke="#00FFFF"/>
<path d="M35.9416 11.7437C36.0425 11.3718 36.1202 11.0188 36.1726 10.689C32.5787 15.9163 28.0551 19.1521 26.0588 20.1925C25.8924 20.2911 25.6339 20.5168 25.3282 20.872C25.0249 21.2244 24.6992 21.6762 24.4002 22.1892C23.798 23.2224 23.3359 24.4486 23.3335 25.5715C23.3944 27.2763 24.2061 28.7334 25.0347 29.8077C25.4114 30.2962 25.7856 30.6977 26.0827 31C26.5064 29.9066 27.2747 29.1308 28.0443 28.5882C28.9031 27.9828 29.7967 27.6455 30.2568 27.4718C30.302 27.4548 30.3431 27.4393 30.3795 27.4252C32.3504 26.4787 33.4469 25.5242 34.0263 24.7506C34.1665 24.5633 34.2751 24.3888 34.3586 24.2289C33.8552 24.4863 33.3183 24.6449 32.8113 24.7386C31.9053 24.9059 31.0394 24.8763 30.5022 24.7939L28.8986 24.5478L30.3625 23.8485C33.6862 22.2609 35.3036 20.6518 36.012 19.3465C36.4033 18.6255 36.5204 17.995 36.4975 17.4928C36.0461 18.0724 35.5121 18.563 34.9871 18.9621C34.2443 19.5269 33.4954 19.9271 32.9672 20.1496C32.9596 20.1569 32.9513 20.1646 32.9422 20.1724C32.9271 20.1855 32.876 20.2295 32.7997 20.2617C32.7724 20.2732 32.6908 20.3023 32.5884 20.3014L31.1509 20.8724L32.1291 19.6128C32.1346 19.596 32.1395 19.5834 32.1421 19.5766L32.1429 19.5746L32.2231 19.3667L32.3532 19.3171C32.7207 18.7885 33.7757 17.0412 34.7024 15.0282C35.2022 13.9425 35.6558 12.7979 35.9416 11.7437ZM32.4859 19.2661C32.4863 19.266 32.4867 19.2658 32.487 19.2657C32.6796 19.1891 32.9226 19.077 33.1942 18.9307L32.4859 19.2661Z" stroke="#00FFFF"/>
<circle cx="19.9699" cy="21.0471" r="8.40177" fill="#00FFFF"/>
<path d="M20.2734 25.3315C20.1032 25.3315 19.9314 25.3315 19.7613 25.3315C19.6605 25.3183 19.5598 25.3084 19.459 25.2935C18.937 25.2192 18.4431 25.059 17.9806 24.8046C17.9459 24.7848 17.8914 24.7815 17.8518 24.793C17.6486 24.8525 17.4487 24.9202 17.2472 24.9846C16.897 25.1019 16.5452 25.2159 16.1933 25.3315C16.1487 25.3315 16.1058 25.3315 16.0612 25.3315C15.929 25.2869 15.8415 25.1994 15.7969 25.0672C15.7969 25.0226 15.7969 24.9797 15.7969 24.9351C15.8002 24.9318 15.8068 24.9285 15.8084 24.9235C15.9819 24.3801 16.1553 23.835 16.3321 23.2915C16.3519 23.232 16.3486 23.1858 16.3189 23.1296C16.0876 22.7117 15.9323 22.269 15.858 21.7966C15.8349 21.6545 15.8167 21.5108 15.7969 21.3671C15.7969 21.197 15.7969 21.0252 15.7969 20.855C15.8018 20.8319 15.8084 20.8071 15.8101 20.784C15.8514 20.1943 16.0083 19.6343 16.2924 19.1173C16.9499 17.9263 17.9492 17.1979 19.2889 16.9402C19.4507 16.9088 19.6143 16.8956 19.7778 16.8741C19.943 16.8741 20.1082 16.8741 20.2734 16.8741C20.2948 16.8791 20.3163 16.8857 20.3378 16.8873C20.9308 16.927 21.4924 17.0839 22.0111 17.3697C23.2021 18.0287 23.9322 19.0281 24.1882 20.3661C24.2196 20.528 24.2328 20.6915 24.2543 20.855C24.2543 21.0202 24.2543 21.1854 24.2543 21.3506C24.2493 21.3737 24.2427 21.3985 24.2411 21.4216C24.1998 22.0113 24.0445 22.5713 23.7587 23.0883C23.1013 24.2793 22.1019 25.0078 20.7623 25.2655C20.6004 25.2952 20.4369 25.3101 20.2734 25.3315ZM16.641 24.4891C16.9994 24.3735 17.343 24.2777 17.6767 24.1521C17.9046 24.0662 18.0863 24.0993 18.2978 24.2182C19.0659 24.651 19.8901 24.7749 20.754 24.5965C21.651 24.4098 22.3728 23.9357 22.9097 23.1957C23.5275 22.3467 23.7257 21.3968 23.5143 20.3711C23.3326 19.4857 22.8618 18.7754 22.1366 18.2369C21.352 17.6538 20.4666 17.4374 19.5036 17.5778C18.5323 17.7199 17.7493 18.1989 17.1646 18.9868C16.5319 19.8375 16.3354 20.7923 16.5352 21.8296C16.6129 22.2294 16.7632 22.6043 16.9763 22.9512C17.0506 23.0735 17.0655 23.194 17.0159 23.3278C16.9763 23.4336 16.9449 23.5409 16.9102 23.6483C16.821 23.9225 16.7335 24.1967 16.641 24.4891Z" fill="black"/>
<path d="M18.3756 21.5158C18.1493 21.5174 17.9593 21.3275 17.9609 21.1012C17.9626 20.8782 18.1476 20.6915 18.3706 20.6899C18.5969 20.6882 18.7869 20.8782 18.7852 21.1045C18.7852 21.3275 18.6002 21.5141 18.3756 21.5158Z" fill="black"/>
<path d="M20.4388 21.1028C20.4388 21.3291 20.2488 21.5174 20.0225 21.5158C19.7995 21.5141 19.6145 21.3275 19.6145 21.1045C19.6145 20.8782 19.8045 20.6899 20.0308 20.6915C20.2538 20.6932 20.4371 20.8782 20.4388 21.1028Z" fill="black"/>
<path d="M22.0906 21.0995C22.0922 21.3258 21.9039 21.5158 21.676 21.5141C21.453 21.5125 21.2663 21.3275 21.2647 21.1045C21.263 20.8782 21.4513 20.6882 21.6793 20.6899C21.9023 20.6915 22.0889 20.8765 22.0906 21.0995Z" fill="black"/>
</svg>
