<svg width="18" height="24" viewBox="0 0 18 24" fill="none" xmlns="http://www.w3.org/2000/svg">
<path d="M2.41472 23.9767C1.9409 23.8808 1.51785 23.7003 1.19069 23.3224C0.835328 22.9163 0.699951 22.4425 0.699951 21.9122C0.699951 16.9654 0.699951 12.0185 0.699951 7.07723C0.699951 5.69526 0.699951 4.3133 0.699951 2.93697C0.699951 2.11343 1.04403 1.47603 1.79424 1.12631C2.07064 0.996572 2.3978 0.934525 2.70804 0.928884C6.0022 0.911962 9.29636 0.923243 12.5962 0.917603C12.8161 0.917603 12.9854 0.990931 13.1377 1.14323C14.6776 2.68878 16.2231 4.23433 17.7687 5.77423C17.9266 5.93217 17.9999 6.11267 17.9999 6.3383C17.9943 11.5447 17.9943 16.7567 17.9999 21.963C17.9999 23.0178 17.2836 23.8244 16.3472 23.9542C16.3247 23.9598 16.3077 23.9711 16.2852 23.9824C11.6598 23.9767 7.03444 23.9767 2.41472 23.9767ZM12.2295 1.87652C12.1167 1.87652 12.0321 1.87652 11.9531 1.87652C8.90715 1.87652 5.86118 1.87652 2.80957 1.87652C2.02551 1.87652 1.65887 2.24316 1.65887 3.0385C1.65887 9.31094 1.65887 15.589 1.65887 21.8615C1.65887 22.6568 2.02551 23.0235 2.80957 23.0235C7.16982 23.0235 11.5301 23.0235 15.8903 23.0235C16.6687 23.0235 17.0354 22.6512 17.0354 21.8784C17.0354 16.9033 17.0354 11.9282 17.0354 6.95314C17.0354 6.87417 17.0354 6.78956 17.0354 6.68803C16.9282 6.68803 16.8492 6.68803 16.7703 6.68803C15.9242 6.68803 15.0724 6.69367 14.2263 6.68803C13.4141 6.68238 12.7823 6.3383 12.4382 5.59373C12.3085 5.3117 12.2521 4.97326 12.2408 4.65738C12.2126 3.73795 12.2295 2.82415 12.2295 1.87652ZM16.2457 5.71783C15.2304 4.7025 14.2094 3.68154 13.2054 2.6775C13.2054 3.3713 13.1828 4.11023 13.211 4.84916C13.2336 5.35118 13.5776 5.68962 14.0853 5.70655C14.8186 5.74039 15.5519 5.71783 16.2457 5.71783Z" fill="black"/>
<path d="M10.3229 10.3714C10.3173 10.9693 10.1142 11.5221 9.95062 12.0862C9.88293 12.3231 9.80961 12.56 9.725 12.7912C9.67987 12.921 9.69679 13.0056 9.78704 13.1128C10.3568 13.7727 10.9772 14.3819 11.671 14.9178C11.75 14.9742 11.8741 15.0024 11.9756 14.9968C12.551 14.9629 13.1263 14.9065 13.696 14.8839C13.8991 14.8783 14.1134 14.9291 14.3165 14.9855C14.8411 15.1265 15.1119 15.4819 15.1119 15.9952C15.1175 16.5874 14.8242 16.9992 14.3222 17.1684C13.713 17.3771 13.1884 17.1741 12.692 16.8469C12.3479 16.6213 12.0151 16.3731 11.671 16.1475C11.5977 16.1023 11.4849 16.0628 11.4059 16.0854C10.4301 16.3392 9.45424 16.6044 8.4784 16.8638C8.31482 16.909 8.21329 16.9992 8.13432 17.1515C7.65486 18.0879 7.06823 18.9452 6.23905 19.6052C5.70318 20.0339 5.12219 20.299 4.41147 20.0283C3.4864 19.6785 3.28897 18.7196 4.05046 18.0766C4.39455 17.7833 4.79503 17.5463 5.19552 17.332C5.91189 16.9597 6.65082 16.6269 7.37847 16.2659C7.46872 16.2208 7.56461 16.1305 7.59846 16.0403C7.92562 15.1265 8.24714 14.2071 8.55737 13.282C8.57994 13.2087 8.53481 13.1015 8.48969 13.0225C8.20201 12.5149 7.87485 12.0298 7.62666 11.5052C7.33334 10.8847 7.37283 10.2135 7.57025 9.57042C7.80152 8.82021 8.43328 8.49305 9.2399 8.63406C9.79268 8.72995 10.0916 9.07404 10.2045 9.59862C10.2609 9.84681 10.2834 10.1119 10.3229 10.3714ZM8.96914 12.0128C9.07068 11.6575 9.19477 11.3472 9.25118 11.0201C9.30758 10.6704 9.31887 10.3093 9.30758 9.95398C9.2963 9.64939 9.17221 9.56478 8.86761 9.57606C8.63634 9.5817 8.51789 9.68887 8.4502 9.97091C8.26406 10.7211 8.52917 11.3698 8.96914 12.0128ZM9.31887 14.0548C9.13272 14.6132 8.95222 15.1603 8.76608 15.7188C9.38091 15.5552 9.95626 15.4029 10.4526 15.2732C10.0916 14.8896 9.71371 14.4835 9.31887 14.0548ZM6.67902 17.7156C6.6621 17.693 6.65082 17.6704 6.6339 17.6479C6.01342 17.9976 5.39295 18.353 4.77247 18.7027C4.73299 18.7253 4.70478 18.7591 4.67094 18.7929C4.50172 18.9791 4.52428 19.0524 4.76683 19.1314C4.97554 19.1991 5.16732 19.1709 5.34782 19.0581C5.90061 18.714 6.30674 18.2289 6.67902 17.7156ZM12.9853 15.8034C12.9797 15.8259 12.974 15.8541 12.9684 15.8767C13.115 15.967 13.2504 16.0798 13.4027 16.1475C13.5607 16.2151 13.7355 16.2546 13.9104 16.2772C14.0401 16.2941 14.1642 16.2095 14.136 16.0685C14.1247 15.9952 14.0119 15.8936 13.9386 15.8823C13.6227 15.8372 13.3012 15.8259 12.9853 15.8034Z" fill="black"/>
</svg>
