<svg width="177" height="73" viewBox="0 0 177 73" fill="none" xmlns="http://www.w3.org/2000/svg">
<path fill-rule="evenodd" clip-rule="evenodd" d="M35.4456 18.6025C38.5891 16.4563 42.3372 15.1686 46.3572 15V23.5847C44.181 23.7227 42.1558 24.4278 40.4178 25.5469L35.4456 18.6025Z" fill="white"/>
<path fill-rule="evenodd" clip-rule="evenodd" d="M27.3146 29.0268C28.6748 25.2863 31.0324 22.0364 34.0701 19.6143L39.0423 26.5587C37.4252 27.923 36.1557 29.686 35.3698 31.6942L27.3146 29.0268Z" fill="white"/>
<path fill-rule="evenodd" clip-rule="evenodd" d="M26.7859 42.3176C26.272 40.4627 26 38.5158 26 36.4923C26 34.4687 26.272 32.5218 26.7859 30.6669L34.8411 33.319C34.5842 34.3308 34.4482 35.3885 34.4482 36.4923C34.4482 37.5807 34.5842 38.6538 34.8411 39.6655L26.7859 42.3176Z" fill="white"/>
<path fill-rule="evenodd" clip-rule="evenodd" d="M34.0701 53.3859C31.0475 50.9638 28.6748 47.7139 27.3146 43.9734L35.3698 41.3214C36.1557 43.3296 37.4403 45.0925 39.0423 46.4569L34.0701 53.3859Z" fill="white"/>
<path fill-rule="evenodd" clip-rule="evenodd" d="M46.3572 58C42.3221 57.8314 38.5891 56.5437 35.4456 54.3975L40.4178 47.4531C42.1558 48.5722 44.181 49.262 46.3572 49.4153V58Z" fill="white"/>
<path fill-rule="evenodd" clip-rule="evenodd" d="M58.9767 54.3975C55.8332 56.5283 52.0852 57.8314 48.0651 58V49.4153C50.2414 49.2773 52.2665 48.5722 54.0045 47.4531L58.9767 54.3975Z" fill="white"/>
<path fill-rule="evenodd" clip-rule="evenodd" d="M67.1075 43.9579C65.7473 47.6984 63.3897 50.9483 60.352 53.3704L55.3798 46.426C56.9969 45.0616 58.2664 43.2987 59.0523 41.2905L67.1075 43.9579Z" fill="white"/>
<path fill-rule="evenodd" clip-rule="evenodd" d="M67.6366 30.6669C68.1504 32.5218 68.4225 34.4687 68.4225 36.4923C68.4225 38.5158 68.1504 40.4627 67.6366 42.3176L59.5814 39.6655C59.8383 38.6538 59.9743 37.596 59.9743 36.4923C59.9743 35.4038 59.8383 34.3308 59.5814 33.319L67.6366 30.6669Z" fill="white"/>
<path fill-rule="evenodd" clip-rule="evenodd" d="M60.3669 19.6143C63.3895 22.0364 65.7623 25.2863 67.1225 29.0268L59.0672 31.6788C58.2814 29.6706 56.9967 27.9077 55.3948 26.5434L60.3669 19.6143Z" fill="white"/>
<path fill-rule="evenodd" clip-rule="evenodd" d="M48.0651 15C52.1003 15.1686 55.8332 16.4563 58.9767 18.6025L54.0045 25.5469C52.2665 24.4278 50.2414 23.7227 48.0651 23.5847V15Z" fill="white"/>
<path d="M38.7936 37.5818H38.2259L37.8267 37.0376H36.9347V37.5818H36.4794V36.5694H38.045C38.1261 36.5694 38.1947 36.5378 38.2509 36.4808C38.307 36.4239 38.3382 36.3543 38.3382 36.272C38.3382 36.1898 38.307 36.1202 38.2509 36.0569C38.1947 35.9936 38.1261 35.9683 38.045 35.9683H36.4794V35.5064H38.045C38.1511 35.5064 38.2446 35.5254 38.3382 35.5697C38.5253 35.652 38.6563 35.7912 38.7374 35.9746C38.7748 36.0759 38.7998 36.1708 38.7998 36.272C38.7998 36.3669 38.7811 36.4682 38.7374 36.5694C38.6563 36.7529 38.5253 36.8858 38.3507 36.968L38.7936 37.5818Z" fill="white"/>
<path d="M41.8937 37.5818H41.3698L40.5526 36.0949L39.7292 37.5818H39.2053L40.353 35.5064H40.7522L41.8937 37.5818Z" fill="white"/>
<path d="M44.9938 37.5818H44.5385V36.2214L43.8398 37.2338H43.4656L42.767 36.2214V37.5754H42.3054V35.5064H42.8231L43.6465 36.7023L44.4761 35.5064H44.9938V37.5818Z" fill="white"/>
<path d="M47.8756 35.981H45.5614V35.5128H47.8756V35.981ZM47.8756 37.5818H45.5614V37.1199H47.8756V37.5818ZM47.6885 36.7782H45.7423V36.3163H47.6885V36.7782Z" fill="white"/>
<path d="M49.984 37.5818H48.9984C48.9111 37.5818 48.8238 37.5628 48.7427 37.5311C48.5805 37.4679 48.462 37.354 48.3871 37.1958C48.3497 37.1199 48.331 37.0313 48.331 36.9427H48.7926C48.7926 36.9807 48.805 37.0123 48.8238 37.0376C48.8425 37.0629 48.8737 37.0819 48.9048 37.0946C48.936 37.1072 48.9672 37.1135 48.9984 37.1135H49.984C50.0152 37.1135 50.0463 37.1072 50.0775 37.0946C50.1087 37.0819 50.1337 37.0629 50.1586 37.0376C50.1836 37.0123 50.1898 36.9807 50.1898 36.9427C50.1898 36.9047 50.1773 36.8794 50.1586 36.8541C50.1399 36.8288 50.1087 36.8098 50.0775 36.7972C50.0463 36.7845 50.0152 36.7782 49.984 36.7782H48.9984C48.9111 36.7782 48.8238 36.7655 48.7427 36.7276C48.5805 36.6643 48.462 36.5504 48.3871 36.3922C48.3497 36.3163 48.331 36.2277 48.331 36.1392C48.331 36.0506 48.3497 35.9683 48.3871 35.8861C48.462 35.7279 48.5805 35.614 48.7427 35.5507C48.8238 35.5191 48.9048 35.5001 48.9984 35.5001H49.984C50.0713 35.5001 50.1586 35.5128 50.2397 35.5507C50.4019 35.614 50.5204 35.7279 50.5953 35.8861C50.6327 35.962 50.6514 36.0506 50.6514 36.1392H50.196C50.196 36.1012 50.1836 36.0759 50.1649 36.0506C50.1461 36.0253 50.115 36.0063 50.0838 35.9936C50.0526 35.981 50.0214 35.9746 49.9902 35.9746H49.0046C48.9735 35.9746 48.9423 35.981 48.9111 35.9936C48.8799 36.0063 48.8549 36.0253 48.83 36.0506C48.805 36.0759 48.7988 36.1075 48.7988 36.1392C48.7988 36.1771 48.8113 36.2088 48.83 36.2341C48.8487 36.2594 48.8799 36.2784 48.9111 36.291C48.9423 36.3037 48.9735 36.31 49.0046 36.31H49.9902C50.0775 36.31 50.1649 36.329 50.2459 36.3606C50.4081 36.4239 50.5266 36.5378 50.6015 36.6959C50.6389 36.7719 50.6576 36.8541 50.6576 36.9427C50.6576 37.0313 50.6389 37.1135 50.6015 37.1958C50.5266 37.354 50.4081 37.4679 50.2459 37.5311C50.1524 37.5628 50.0713 37.5818 49.984 37.5818Z" fill="white"/>
<path d="M52.2794 37.5818H51.8241V35.9683H51.0756V35.5064H53.0217V35.9683H52.2794V37.5818Z" fill="white"/>
<path d="M54.7122 37.5818H54.2568V35.9683H53.5083V35.5064H55.4545V35.9683H54.7122V37.5818Z" fill="white"/>
<path d="M57.9058 37.5818H57.3819L56.5647 36.0949L55.7413 37.5818H55.2174L56.3589 35.5064H56.7581L57.9058 37.5818Z" fill="white"/>
<path d="M76.1086 34.4533V23.5595H80.7727C81.4478 23.5595 82.0359 23.6788 82.5371 23.9174C83.0383 24.156 83.427 24.4932 83.7031 24.929C83.9793 25.3647 84.1174 25.8783 84.1174 26.4697V26.6564C84.1174 27.31 83.964 27.8392 83.6571 28.2438C83.3503 28.6484 82.9718 28.9441 82.5218 29.1309V29.411C82.9309 29.4317 83.248 29.577 83.473 29.8467C83.698 30.1061 83.8105 30.4537 83.8105 30.8894V34.4533H81.7853V31.1851C81.7853 30.9361 81.7188 30.7338 81.5859 30.5782C81.4631 30.4226 81.2535 30.3448 80.9568 30.3448H78.1338V34.4533H76.1086ZM78.1338 28.4772H80.5579C81.0387 28.4772 81.412 28.3476 81.6779 28.0882C81.9541 27.8184 82.0922 27.4657 82.0922 27.0299V26.8743C82.0922 26.4385 81.9592 26.091 81.6933 25.8316C81.4273 25.5618 81.0489 25.427 80.5579 25.427H78.1338V28.4772Z" fill="white"/>
<path d="M85.0661 34.4533L87.8891 23.5595H91.4179L94.2409 34.4533H92.1543L91.5713 32.0566H87.7357L87.1527 34.4533H85.0661ZM88.2113 30.158H91.0957L89.7916 24.8512H89.5154L88.2113 30.158Z" fill="white"/>
<path d="M95.5265 34.4533V23.5595H99.2854L101.142 33.0526H101.418L103.274 23.5595H107.033V34.4533H105.069V25.069H104.793L102.952 34.4533H99.6076L97.7664 25.069H97.4903V34.4533H95.5265Z" fill="white"/>
<path d="M109.056 34.4533V23.5595H115.96V25.427H111.081V28.0259H115.531V29.8934H111.081V32.5858H116.052V34.4533H109.056Z" fill="white"/>
<path d="M121.28 34.6712C120.451 34.6712 119.72 34.5207 119.086 34.2198C118.451 33.919 117.955 33.4884 117.597 32.9281C117.239 32.3679 117.06 31.6935 117.06 30.905V30.4693H119.055V30.905C119.055 31.5586 119.254 32.0515 119.653 32.3835C120.052 32.7051 120.594 32.8659 121.28 32.8659C121.975 32.8659 122.492 32.7258 122.829 32.4457C123.177 32.1656 123.351 31.8076 123.351 31.3719C123.351 31.071 123.264 30.8272 123.09 30.6404C122.926 30.4537 122.681 30.3033 122.354 30.1891C122.036 30.0646 121.648 29.9505 121.187 29.8467L120.835 29.7689C120.098 29.6029 119.464 29.3954 118.932 29.1464C118.41 28.8871 118.006 28.5499 117.72 28.1349C117.444 27.7199 117.306 27.1804 117.306 26.5163C117.306 25.8523 117.459 25.2869 117.766 24.82C118.083 24.3428 118.523 23.9796 119.086 23.7306C119.658 23.4713 120.328 23.3416 121.095 23.3416C121.863 23.3416 122.543 23.4765 123.136 23.7462C123.739 24.0056 124.21 24.3998 124.547 24.929C124.895 25.4477 125.069 26.1013 125.069 26.8899V27.3567H123.075V26.8899C123.075 26.4748 122.993 26.1428 122.829 25.8938C122.676 25.6345 122.451 25.4477 122.154 25.3336C121.857 25.2091 121.505 25.1468 121.095 25.1468C120.482 25.1468 120.027 25.2662 119.73 25.5048C119.444 25.733 119.3 26.0495 119.3 26.4541C119.3 26.7239 119.367 26.9521 119.5 27.1389C119.643 27.3256 119.853 27.4812 120.129 27.6057C120.405 27.7302 120.758 27.8392 121.187 27.9325L121.54 28.0104C122.307 28.1764 122.972 28.3891 123.535 28.6484C124.108 28.9078 124.553 29.2502 124.87 29.6756C125.187 30.1009 125.345 30.6456 125.345 31.3096C125.345 31.9736 125.177 32.5598 124.839 33.0682C124.512 33.5662 124.041 33.9605 123.427 34.251C122.824 34.5311 122.108 34.6712 121.28 34.6712Z" fill="white"/>
<path d="M128.997 34.4533V25.427H125.867V23.5595H134.152V25.427H131.022V34.4533H128.997Z" fill="white"/>
<path d="M138.016 34.4533V25.427H134.886V23.5595H143.171V25.427H140.041V34.4533H138.016Z" fill="white"/>
<path d="M142.825 34.4533L145.648 23.5595H149.177L152 34.4533H149.913L149.33 32.0566H145.495L144.912 34.4533H142.825ZM145.97 30.158H148.855L147.551 24.8512H147.275L145.97 30.158Z" fill="white"/>
<path d="M75.6853 50.794V49.2866H76.8639V43.2051H75.6853V41.6977H80.2973C80.8439 41.6977 81.3179 41.793 81.7193 41.9836C82.1292 42.1655 82.4452 42.4297 82.6673 42.7762C82.8979 43.1141 83.0132 43.5213 83.0132 43.9978V44.1277C83.0132 44.5435 82.9363 44.8857 82.7826 45.1543C82.6289 45.4142 82.4452 45.6178 82.2317 45.765C82.0267 45.9037 81.8303 46.0033 81.6424 46.0639V46.2978C81.8303 46.3498 82.0353 46.4494 82.2573 46.5967C82.4794 46.7353 82.6673 46.9389 82.821 47.2075C82.9833 47.476 83.0644 47.8269 83.0644 48.26V48.39C83.0644 48.8925 82.9491 49.3256 82.7185 49.6895C82.4879 50.0447 82.1677 50.3175 81.7577 50.5081C81.3563 50.6987 80.8866 50.794 80.3485 50.794H75.6853ZM78.555 49.2346H80.1435C80.5108 49.2346 80.8054 49.1437 81.0275 48.9618C81.2581 48.7798 81.3734 48.5199 81.3734 48.1821V48.0521C81.3734 47.7143 81.2624 47.4544 81.0403 47.2724C80.8182 47.0905 80.5193 46.9995 80.1435 46.9995H78.555V49.2346ZM78.555 45.4402H80.1179C80.4681 45.4402 80.7542 45.3492 80.9762 45.1673C81.2068 44.9854 81.3221 44.7341 81.3221 44.4136V44.2836C81.3221 43.9544 81.2111 43.7032 80.9891 43.5299C80.767 43.348 80.4766 43.257 80.1179 43.257H78.555V45.4402Z" fill="white"/>
<path d="M84.4488 50.794V41.6977H86.1399V49.2346H90.2394V50.794H84.4488Z" fill="white"/>
<path d="M94.5766 50.9759C93.4492 50.9759 92.5525 50.6641 91.8863 50.0403C91.2201 49.4079 90.887 48.5069 90.887 47.3374V45.1543C90.887 43.9848 91.2201 43.0881 91.8863 42.4644C92.5525 41.832 93.4492 41.5157 94.5766 41.5157C95.704 41.5157 96.6007 41.832 97.2669 42.4644C97.9331 43.0881 98.2662 43.9848 98.2662 45.1543V47.3374C98.2662 48.5069 97.9331 49.4079 97.2669 50.0403C96.6007 50.6641 95.704 50.9759 94.5766 50.9759ZM94.5766 49.4426C95.2086 49.4426 95.6997 49.2563 96.0499 48.8838C96.4 48.5113 96.5751 48.0131 96.5751 47.3894V45.1023C96.5751 44.4786 96.4 43.9804 96.0499 43.6079C95.6997 43.2354 95.2086 43.0491 94.5766 43.0491C93.9531 43.0491 93.4621 43.2354 93.1033 43.6079C92.7532 43.9804 92.5781 44.4786 92.5781 45.1023V47.3894C92.5781 48.0131 92.7532 48.5113 93.1033 48.8838C93.4621 49.2563 93.9531 49.4426 94.5766 49.4426Z" fill="white"/>
<path d="M103.157 50.9759C102.047 50.9759 101.167 50.6641 100.518 50.0403C99.869 49.4079 99.5445 48.5069 99.5445 47.3374V45.1543C99.5445 43.9848 99.869 43.0881 100.518 42.4644C101.167 41.832 102.047 41.5157 103.157 41.5157C104.259 41.5157 105.109 41.8233 105.707 42.4384C106.313 43.0448 106.616 43.8808 106.616 44.9464V45.0243H104.951V44.8944C104.951 44.3573 104.801 43.9155 104.502 43.5689C104.212 43.2224 103.764 43.0491 103.157 43.0491C102.559 43.0491 102.09 43.2354 101.748 43.6079C101.406 43.9804 101.236 44.4872 101.236 45.1283V47.3634C101.236 47.9958 101.406 48.5026 101.748 48.8838C102.09 49.2563 102.559 49.4426 103.157 49.4426C103.764 49.4426 104.212 49.2693 104.502 48.9228C104.801 48.5676 104.951 48.1258 104.951 47.5973V47.3634H106.616V47.5453C106.616 48.6109 106.313 49.4512 105.707 50.0663C105.109 50.6727 104.259 50.9759 103.157 50.9759Z" fill="white"/>
<path d="M107.994 50.794V41.6977H109.685V45.3102H109.916L112.824 41.6977H114.989L111.248 46.1809L115.117 50.794H112.888L109.916 47.1035H109.685V50.794H107.994Z" fill="white"/>
<path d="M119.033 50.9759C117.923 50.9759 117.043 50.6641 116.394 50.0403C115.745 49.4079 115.421 48.5069 115.421 47.3374V45.1543C115.421 43.9848 115.745 43.0881 116.394 42.4644C117.043 41.832 117.923 41.5157 119.033 41.5157C120.135 41.5157 120.985 41.8233 121.583 42.4384C122.189 43.0448 122.492 43.8808 122.492 44.9464V45.0243H120.827V44.8944C120.827 44.3573 120.677 43.9155 120.378 43.5689C120.088 43.2224 119.64 43.0491 119.033 43.0491C118.435 43.0491 117.966 43.2354 117.624 43.6079C117.282 43.9804 117.112 44.4872 117.112 45.1283V47.3634C117.112 47.9958 117.282 48.5026 117.624 48.8838C117.966 49.2563 118.435 49.4426 119.033 49.4426C119.64 49.4426 120.088 49.2693 120.378 48.9228C120.677 48.5676 120.827 48.1258 120.827 47.5973V47.3634H122.492V47.5453C122.492 48.6109 122.189 49.4512 121.583 50.0663C120.985 50.6727 120.135 50.9759 119.033 50.9759Z" fill="white"/>
<path d="M123.87 50.794V41.6977H125.561V45.4532H128.892V41.6977H130.583V50.794H128.892V47.0125H125.561V50.794H123.87Z" fill="white"/>
<path d="M131.662 50.794L134.02 41.6977H136.966L139.323 50.794H137.581L137.094 48.7928H133.891L133.405 50.794H131.662ZM134.289 47.2075H136.697L135.608 42.7762H135.378L134.289 47.2075Z" fill="white"/>
<path d="M140.397 50.794V41.6977H142.088V50.794H140.397Z" fill="white"/>
<path d="M143.775 50.794V41.6977H146.99L148.771 49.6245H149.002V41.6977H150.667V50.794H147.451L145.671 42.8672H145.44V50.794H143.775Z" fill="white"/>
</svg>
