<svg width="77" height="77" viewBox="0 0 77 77" fill="none" xmlns="http://www.w3.org/2000/svg">
<circle cx="38.8629" cy="38.5199" r="38.055" fill="#f5eb00"/>
<path d="M40.2372 57.9257C39.4666 57.9257 38.6885 57.9257 37.9179 57.9257C37.4615 57.8659 37.0051 57.821 36.5487 57.7536C34.1844 57.4169 31.9473 56.6912 29.8524 55.539C29.6953 55.4492 29.4484 55.4343 29.2688 55.4866C28.3486 55.756 27.4433 56.0627 26.5305 56.3545C24.9443 56.8857 23.3507 57.402 21.7571 57.9257C21.5551 57.9257 21.3605 57.9257 21.1585 57.9257C20.56 57.7237 20.1634 57.3272 19.9614 56.7286C19.9614 56.5266 19.9614 56.3321 19.9614 56.1301C19.9764 56.1151 20.0063 56.1001 20.0138 56.0777C20.7994 53.6162 21.585 51.1472 22.3855 48.6856C22.4753 48.4163 22.4604 48.2068 22.3257 47.9524C21.2782 46.0595 20.5749 44.0544 20.2383 41.9146C20.1335 41.2711 20.0512 40.6202 19.9614 39.9693C19.9614 39.1986 19.9614 38.4205 19.9614 37.6499C19.9839 37.5452 20.0138 37.4329 20.0213 37.3282C20.2083 34.6572 20.9191 32.1208 22.206 29.779C25.1838 24.3846 29.7103 21.0851 35.7781 19.9179C36.5113 19.7758 37.252 19.7159 37.9927 19.6187C38.7409 19.6187 39.489 19.6187 40.2372 19.6187C40.3345 19.6411 40.4318 19.671 40.529 19.6785C43.215 19.8581 45.7588 20.5688 48.1081 21.8632C53.5025 24.8485 56.8095 29.375 57.9692 35.4353C58.1114 36.1685 58.1712 36.9092 58.2685 37.6499C58.2685 38.3981 58.2685 39.1463 58.2685 39.8945C58.246 39.9992 58.2161 40.1114 58.2086 40.2162C58.0216 42.8872 57.3183 45.4235 56.0239 47.7654C53.0462 53.1598 48.5196 56.4593 42.4519 57.6264C41.7186 57.7611 40.9779 57.8284 40.2372 57.9257ZM23.7846 54.11C25.4082 53.5862 26.9644 53.1523 28.4758 52.5837C29.5083 52.1946 30.3313 52.3443 31.2889 52.8829C34.768 54.8432 38.5014 55.4043 42.4145 54.5963C46.4771 53.7508 49.7467 51.6036 52.1783 48.2517C54.9765 44.406 55.8743 40.104 54.9166 35.4577C54.0936 31.4475 51.9613 28.2303 48.6768 25.7912C45.1229 23.1501 41.1126 22.17 36.7507 22.8059C32.3514 23.4494 28.805 25.6191 26.1564 29.1879C23.2908 33.0411 22.4005 37.3656 23.3058 42.0642C23.6575 43.8748 24.3383 45.5732 25.3035 47.1444C25.6401 47.698 25.7075 48.2442 25.483 48.8502C25.3035 49.3291 25.1613 49.8154 25.0042 50.3017C24.6002 51.5437 24.2036 52.7857 23.7846 54.11Z" fill="black"/>
<path d="M31.6407 40.6426C30.6157 40.6501 29.7553 39.7897 29.7627 38.7646C29.7702 37.7546 30.6082 36.9091 31.6182 36.9017C32.6433 36.8942 33.5037 37.7546 33.4962 38.7796C33.4962 39.7897 32.6582 40.6351 31.6407 40.6426Z" fill="black"/>
<path d="M40.9854 38.7722C40.9854 39.7972 40.125 40.6502 39.1 40.6427C38.0899 40.6352 37.252 39.7897 37.252 38.7797C37.252 37.7547 38.1124 36.9017 39.1374 36.9092C40.1474 36.9167 40.9779 37.7547 40.9854 38.7722Z" fill="black"/>
<path d="M48.4675 38.7572C48.475 39.7822 47.6221 40.6426 46.5896 40.6351C45.5795 40.6276 44.7341 39.7897 44.7266 38.7796C44.7191 37.7546 45.5721 36.8942 46.6046 36.9017C47.6146 36.9091 48.4601 37.7471 48.4675 38.7572Z" fill="black"/>
</svg>
