<svg width="449" height="450" viewBox="0 0 449 450" fill="none" xmlns="http://www.w3.org/2000/svg">
<mask id="mask0_282_9" style="mask-type:luminance" maskUnits="userSpaceOnUse" x="0" y="0" width="449" height="450">
<path d="M448.37 0H0V449.15H448.37V0Z" fill="white"/>
</mask>
<g mask="url(#mask0_282_9)">
<path d="M141.761 27.5899L167.561 84.0199C169.661 88.6099 174.861 90.9599 179.651 89.3999C190.531 85.8699 201.991 83.6099 213.851 82.8199C219.071 82.4699 223.091 78.0799 223.091 72.8499V11.0299C223.091 5.33992 218.341 0.75991 212.661 1.02991C189.891 2.10991 168.011 6.59992 147.521 13.9999C141.991 15.9999 139.311 22.2499 141.751 27.5899H141.761Z" fill="url(#paint0_radial_282_9)" stroke="#1B1B1C" stroke-width="2"/>
<path d="M59.9862 364.349L107.486 324.427C111.351 321.18 117.056 321.286 120.715 324.749C129.031 332.602 138.416 339.557 148.792 345.355C153.358 347.909 155.108 353.598 152.866 358.323L126.366 414.175C123.926 419.316 117.672 421.417 112.656 418.738C92.547 408.002 74.7041 394.566 59.3644 379.096C55.2257 374.919 55.4836 368.123 59.9772 364.345L59.9862 364.349Z" fill="url(#paint1_radial_282_9)" stroke="#1B1B1C" stroke-width="2"/>
<path d="M159.9 86.83L134.18 30.58C131.81 25.39 125.56 23.21 120.49 25.85C48.9 63.08 0 137.93 0 224.21C0 271.57 14.74 315.49 39.87 351.63C43.14 356.33 49.71 357.3 54.22 353.78L102.99 315.73C107.13 312.5 108.03 306.64 105.13 302.26C90.34 279.88 81.72 253.05 81.72 224.21C81.72 170.5 111.59 123.77 155.64 99.7405C160.23 97.24 162.07 91.59 159.9 86.83Z" fill="url(#paint2_radial_282_9)" stroke="#1B1C1C" stroke-width="2"/>
<path d="M365.483 177.119L422.97 157.768C426.427 155.151 431.282 155.937 433.587 159.521C446 200 453.936 269 421.135 328.302C402.772 361.5 371.5 395.5 341.125 408.126C337.127 409.788 332.654 408.382 331.038 404.411L304.552 355.483C303.068 351.839 304.656 347.601 308.156 345.716C324 332.302 340.54 314.239 351.221 294.97C359.242 280.5 374.5 242.5 363.46 187.274C361.414 183.956 362.315 179.52 365.483 177.119Z" fill="url(#paint3_radial_282_9)" stroke="#1B1C1C" stroke-width="2"/>
<path d="M354 224C354 151.651 295.349 93 223 93C150.651 93 92 151.651 92 224V226C92 298.349 150.651 357 223 357C295.349 357 354 298.349 354 226V224Z" fill="#26262A"/>
<path d="M136.127 422.012L160.135 360.522C161.407 357.263 165.188 355.795 168.414 357.149C214.519 376.505 264.604 364.553 289.044 354.015C292.084 352.704 295.643 353.905 297.054 356.899C300.839 364.933 308.553 381.665 321.822 411.181C323.029 413.867 322.12 417.054 319.601 418.578C264.932 451.659 183.786 448.855 139.106 429.443C136.252 428.203 134.995 424.911 136.127 422.012Z" fill="url(#paint4_radial_282_9)" stroke="#1B1B1C" stroke-width="2"/>
<path d="M169.801 195V189.96C169.801 187.04 170.281 184.62 171.241 182.7C172.201 180.74 173.581 179.14 175.381 177.9C177.221 176.62 179.461 175.58 182.101 174.78L186.121 173.52C187.601 173.04 188.841 172.46 189.841 171.78C190.841 171.06 191.601 170.2 192.121 169.2C192.681 168.2 192.961 167.06 192.961 165.78V165.54C192.961 163.54 192.281 161.96 190.921 160.8C189.561 159.6 187.701 159 185.341 159C183.021 159 181.141 159.64 179.701 160.92C178.301 162.16 177.601 163.96 177.601 166.32V167.4H169.921V166.44C169.921 163.4 170.601 160.82 171.961 158.7C173.321 156.58 175.161 154.96 177.481 153.84C179.841 152.72 182.461 152.16 185.341 152.16C188.221 152.16 190.821 152.72 193.141 153.84C195.461 154.92 197.281 156.46 198.601 158.46C199.961 160.42 200.641 162.74 200.641 165.42V166.02C200.641 168.7 200.081 170.98 198.961 172.86C197.881 174.7 196.401 176.22 194.521 177.42C192.641 178.58 190.501 179.54 188.101 180.3L184.261 181.5C182.541 182.02 181.201 182.6 180.241 183.24C179.281 183.84 178.601 184.52 178.201 185.28C177.841 186 177.661 186.88 177.661 187.92V188.16H200.281V195H169.801ZM222.346 195.84C217.386 195.84 213.406 194.48 210.406 191.76C207.406 189 205.906 184.84 205.906 179.28V168.72C205.906 163.32 207.406 159.22 210.406 156.42C213.406 153.58 217.386 152.16 222.346 152.16C227.346 152.16 231.326 153.58 234.286 156.42C237.286 159.22 238.786 163.32 238.786 168.72V179.28C238.786 184.84 237.286 189 234.286 191.76C231.326 194.48 227.346 195.84 222.346 195.84ZM222.346 189C225.346 189 227.546 188.18 228.946 186.54C230.386 184.9 231.106 182.56 231.106 179.52V168.36C231.106 165.28 230.306 162.96 228.706 161.4C227.146 159.8 225.026 159 222.346 159C219.586 159 217.426 159.82 215.866 161.46C214.346 163.1 213.586 165.4 213.586 168.36V179.52C213.586 182.68 214.306 185.06 215.746 186.66C217.226 188.22 219.426 189 222.346 189ZM261.253 195.84C256.293 195.84 252.313 194.48 249.312 191.76C246.313 189 244.813 184.84 244.813 179.28V168.72C244.813 163.32 246.313 159.22 249.312 156.42C252.313 153.58 256.293 152.16 261.253 152.16C266.253 152.16 270.233 153.58 273.193 156.42C276.193 159.22 277.693 163.32 277.693 168.72V179.28C277.693 184.84 276.193 189 273.193 191.76C270.233 194.48 266.253 195.84 261.253 195.84ZM261.253 189C264.253 189 266.453 188.18 267.853 186.54C269.293 184.9 270.013 182.56 270.013 179.52V168.36C270.013 165.28 269.213 162.96 267.613 161.4C266.053 159.8 263.933 159 261.253 159C258.493 159 256.333 159.82 254.773 161.46C253.253 163.1 252.493 165.4 252.493 168.36V179.52C252.493 182.68 253.213 185.06 254.653 186.66C256.133 188.22 258.333 189 261.253 189ZM170.521 233V212H177.871L181.501 230.3H182.041L185.671 212H193.021V233H189.181V214.91H188.641L185.041 233H178.501L174.901 214.91H174.361V233H170.521ZM197.096 233V218.12H200.876V233H197.096ZM198.986 216.38C198.306 216.38 197.726 216.16 197.246 215.72C196.786 215.28 196.556 214.7 196.556 213.98C196.556 213.26 196.786 212.68 197.246 212.24C197.726 211.8 198.306 211.58 198.986 211.58C199.686 211.58 200.266 211.8 200.726 212.24C201.186 212.68 201.416 213.26 201.416 213.98C201.416 214.7 201.186 215.28 200.726 215.72C200.266 216.16 199.686 216.38 198.986 216.38ZM205.065 233V212H208.845V233H205.065ZM213.034 233V212H216.814V233H213.034ZM221.002 233V218.12H224.782V233H221.002ZM222.892 216.38C222.212 216.38 221.632 216.16 221.152 215.72C220.692 215.28 220.462 214.7 220.462 213.98C220.462 213.26 220.692 212.68 221.152 212.24C221.632 211.8 222.212 211.58 222.892 211.58C223.592 211.58 224.172 211.8 224.632 212.24C225.092 212.68 225.322 213.26 225.322 213.98C225.322 214.7 225.092 215.28 224.632 215.72C224.172 216.16 223.592 216.38 222.892 216.38ZM236.051 233.42C234.571 233.42 233.241 233.12 232.061 232.52C230.881 231.92 229.951 231.05 229.271 229.91C228.591 228.77 228.251 227.4 228.251 225.8V225.32C228.251 223.72 228.591 222.35 229.271 221.21C229.951 220.07 230.881 219.2 232.061 218.6C233.241 218 234.571 217.7 236.051 217.7C237.531 217.7 238.861 218 240.041 218.6C241.221 219.2 242.151 220.07 242.831 221.21C243.511 222.35 243.851 223.72 243.851 225.32V225.8C243.851 227.4 243.511 228.77 242.831 229.91C242.151 231.05 241.221 231.92 240.041 232.52C238.861 233.12 237.531 233.42 236.051 233.42ZM236.051 230.06C237.211 230.06 238.171 229.69 238.931 228.95C239.691 228.19 240.071 227.11 240.071 225.71V225.41C240.071 224.01 239.691 222.94 238.931 222.2C238.191 221.44 237.231 221.06 236.051 221.06C234.891 221.06 233.931 221.44 233.171 222.2C232.411 222.94 232.031 224.01 232.031 225.41V225.71C232.031 227.11 232.411 228.19 233.171 228.95C233.931 229.69 234.891 230.06 236.051 230.06ZM247.34 233V218.12H251.06V220.07H251.6C251.84 219.55 252.29 219.06 252.95 218.6C253.61 218.12 254.61 217.88 255.95 217.88C257.11 217.88 258.12 218.15 258.98 218.69C259.86 219.21 260.54 219.94 261.02 220.88C261.5 221.8 261.74 222.88 261.74 224.12V233H257.96V224.42C257.96 223.3 257.68 222.46 257.12 221.9C256.58 221.34 255.8 221.06 254.78 221.06C253.62 221.06 252.72 221.45 252.08 222.23C251.44 222.99 251.12 224.06 251.12 225.44V233H247.34ZM272.007 233.42C270.067 233.42 268.477 233 267.237 232.16C265.997 231.32 265.247 230.12 264.987 228.56L268.467 227.66C268.607 228.36 268.837 228.91 269.157 229.31C269.497 229.71 269.907 230 270.387 230.18C270.887 230.34 271.427 230.42 272.007 230.42C272.887 230.42 273.537 230.27 273.957 229.97C274.377 229.65 274.587 229.26 274.587 228.8C274.587 228.34 274.387 227.99 273.987 227.75C273.587 227.49 272.947 227.28 272.067 227.12L271.227 226.97C270.187 226.77 269.237 226.5 268.377 226.16C267.517 225.8 266.827 225.31 266.307 224.69C265.787 224.07 265.527 223.27 265.527 222.29C265.527 220.81 266.067 219.68 267.147 218.9C268.227 218.1 269.647 217.7 271.407 217.7C273.067 217.7 274.447 218.07 275.547 218.81C276.647 219.55 277.367 220.52 277.707 221.72L274.197 222.8C274.037 222.04 273.707 221.5 273.207 221.18C272.727 220.86 272.127 220.7 271.407 220.7C270.687 220.7 270.137 220.83 269.757 221.09C269.377 221.33 269.187 221.67 269.187 222.11C269.187 222.59 269.387 222.95 269.787 223.19C270.187 223.41 270.727 223.58 271.407 223.7L272.247 223.85C273.367 224.05 274.377 224.32 275.277 224.66C276.197 224.98 276.917 225.45 277.437 226.07C277.977 226.67 278.247 227.49 278.247 228.53C278.247 230.09 277.677 231.3 276.537 232.16C275.417 233 273.907 233.42 272.007 233.42ZM182.572 271.42C180.952 271.42 179.522 271.13 178.282 270.55C177.042 269.97 176.072 269.14 175.372 268.06C174.672 266.98 174.322 265.68 174.322 264.16V263.32H178.222V264.16C178.222 265.42 178.612 266.37 179.392 267.01C180.172 267.63 181.232 267.94 182.572 267.94C183.932 267.94 184.942 267.67 185.602 267.13C186.282 266.59 186.622 265.9 186.622 265.06C186.622 264.48 186.452 264.01 186.112 263.65C185.792 263.29 185.312 263 184.672 262.78C184.052 262.54 183.292 262.32 182.392 262.12L181.702 261.97C180.262 261.65 179.022 261.25 177.982 260.77C176.962 260.27 176.172 259.62 175.612 258.82C175.072 258.02 174.802 256.98 174.802 255.7C174.802 254.42 175.102 253.33 175.702 252.43C176.322 251.51 177.182 250.81 178.282 250.33C179.402 249.83 180.712 249.58 182.212 249.58C183.712 249.58 185.042 249.84 186.202 250.36C187.382 250.86 188.302 251.62 188.962 252.64C189.642 253.64 189.982 254.9 189.982 256.42V257.32H186.082V256.42C186.082 255.62 185.922 254.98 185.602 254.5C185.302 254 184.862 253.64 184.282 253.42C183.702 253.18 183.012 253.06 182.212 253.06C181.012 253.06 180.122 253.29 179.542 253.75C178.982 254.19 178.702 254.8 178.702 255.58C178.702 256.1 178.832 256.54 179.092 256.9C179.372 257.26 179.782 257.56 180.322 257.8C180.862 258.04 181.552 258.25 182.392 258.43L183.082 258.58C184.582 258.9 185.882 259.31 186.982 259.81C188.102 260.31 188.972 260.97 189.592 261.79C190.212 262.61 190.522 263.66 190.522 264.94C190.522 266.22 190.192 267.35 189.532 268.33C188.892 269.29 187.972 270.05 186.772 270.61C185.592 271.15 184.192 271.42 182.572 271.42ZM199.265 271.24C198.105 271.24 197.085 270.98 196.205 270.46C195.345 269.92 194.675 269.18 194.195 268.24C193.715 267.3 193.475 266.22 193.475 265V256.12H197.255V264.7C197.255 265.82 197.525 266.66 198.065 267.22C198.625 267.78 199.415 268.06 200.435 268.06C201.595 268.06 202.495 267.68 203.135 266.92C203.775 266.14 204.095 265.06 204.095 263.68V256.12H207.875V271H204.155V269.05H203.615C203.375 269.55 202.925 270.04 202.265 270.52C201.605 271 200.605 271.24 199.265 271.24ZM212.081 277V256.12H215.801V257.92H216.341C216.681 257.34 217.211 256.83 217.931 256.39C218.651 255.93 219.681 255.7 221.021 255.7C222.221 255.7 223.331 256 224.351 256.6C225.371 257.18 226.191 258.04 226.811 259.18C227.431 260.32 227.741 261.7 227.741 263.32V263.8C227.741 265.42 227.431 266.8 226.811 267.94C226.191 269.08 225.371 269.95 224.351 270.55C223.331 271.13 222.221 271.42 221.021 271.42C220.121 271.42 219.361 271.31 218.741 271.09C218.141 270.89 217.651 270.63 217.271 270.31C216.911 269.97 216.621 269.63 216.401 269.29H215.861V277H212.081ZM219.881 268.12C221.061 268.12 222.031 267.75 222.791 267.01C223.571 266.25 223.961 265.15 223.961 263.71V263.41C223.961 261.97 223.571 260.88 222.791 260.14C222.011 259.38 221.041 259 219.881 259C218.721 259 217.751 259.38 216.971 260.14C216.191 260.88 215.801 261.97 215.801 263.41V263.71C215.801 265.15 216.191 266.25 216.971 267.01C217.751 267.75 218.721 268.12 219.881 268.12ZM231.212 277V256.12H234.932V257.92H235.472C235.812 257.34 236.342 256.83 237.062 256.39C237.782 255.93 238.812 255.7 240.152 255.7C241.352 255.7 242.462 256 243.482 256.6C244.502 257.18 245.322 258.04 245.942 259.18C246.562 260.32 246.872 261.7 246.872 263.32V263.8C246.872 265.42 246.562 266.8 245.942 267.94C245.322 269.08 244.502 269.95 243.482 270.55C242.462 271.13 241.352 271.42 240.152 271.42C239.252 271.42 238.492 271.31 237.872 271.09C237.272 270.89 236.782 270.63 236.402 270.31C236.042 269.97 235.752 269.63 235.532 269.29H234.992V277H231.212ZM239.012 268.12C240.192 268.12 241.162 267.75 241.922 267.01C242.702 266.25 243.092 265.15 243.092 263.71V263.41C243.092 261.97 242.702 260.88 241.922 260.14C241.142 259.38 240.172 259 239.012 259C237.852 259 236.882 259.38 236.102 260.14C235.322 260.88 234.932 261.97 234.932 263.41V263.71C234.932 265.15 235.322 266.25 236.102 267.01C236.882 267.75 237.852 268.12 239.012 268.12ZM250.343 271V250H254.123V271H250.343ZM259.932 277V273.7H268.032C268.592 273.7 268.872 273.4 268.872 272.8V269.05H268.332C268.172 269.39 267.922 269.73 267.582 270.07C267.242 270.41 266.782 270.69 266.202 270.91C265.622 271.13 264.882 271.24 263.982 271.24C262.822 271.24 261.802 270.98 260.922 270.46C260.062 269.92 259.392 269.18 258.912 268.24C258.432 267.3 258.192 266.22 258.192 265V256.12H261.972V264.7C261.972 265.82 262.242 266.66 262.782 267.22C263.342 267.78 264.132 268.06 265.152 268.06C266.312 268.06 267.212 267.68 267.852 266.92C268.492 266.14 268.812 265.06 268.812 263.68V256.12H272.592V273.64C272.592 274.66 272.292 275.47 271.692 276.07C271.092 276.69 270.292 277 269.292 277H259.932Z" fill="white"/>
</g>
<path d="M428.534 136.422C383.055 36.4158 299.751 6.01614 240.995 4.09847C237.683 3.99037 234.997 6.68591 234.943 9.99918C234.742 22.4086 233.961 45.9699 231.9 75.4274C231.681 78.5649 233.933 81.3481 237.031 81.8892C309.102 94.4757 343.822 140.245 354.448 166.691C355.709 169.831 359.11 171.54 362.257 170.296C370.874 166.89 389.735 159.223 425.396 144.34C428.475 143.055 429.916 139.46 428.534 136.422Z" fill="url(#paint5_radial_282_9)" stroke="#1B1B1C" stroke-width="2"/>
<defs>
<radialGradient id="paint0_radial_282_9" cx="0" cy="0" r="1" gradientUnits="userSpaceOnUse" gradientTransform="translate(249.631 232.54) scale(224.9 224.9)">
<stop offset="0.49" stop-color="#B276FF"/>
<stop offset="1" stop-color="#5A03CA"/>
</radialGradient>
<radialGradient id="paint1_radial_282_9" cx="0" cy="0" r="1" gradientUnits="userSpaceOnUse" gradientTransform="translate(245.3 225.427) rotate(25.3836) scale(224.9 224.9)">
<stop offset="0.49" stop-color="#F25C07"/>
<stop offset="1" stop-color="#C6CA03"/>
</radialGradient>
<radialGradient id="paint2_radial_282_9" cx="0" cy="0" r="1" gradientUnits="userSpaceOnUse" gradientTransform="translate(225.09 218.51) scale(214.31 214.31)">
<stop offset="0.51" stop-color="#FFDAE3"/>
<stop offset="1" stop-color="#F51F38"/>
</radialGradient>
<radialGradient id="paint3_radial_282_9" cx="0" cy="0" r="1" gradientUnits="userSpaceOnUse" gradientTransform="translate(264.501 251.701) rotate(-150.999) scale(158.66 163.718)">
<stop offset="0.51" stop-color="#FFDAE3"/>
<stop offset="1" stop-color="#F27400"/>
</radialGradient>
<radialGradient id="paint4_radial_282_9" cx="0" cy="0" r="1" gradientUnits="userSpaceOnUse" gradientTransform="translate(228 351) rotate(80.3803) scale(59.8415 128.332)">
<stop offset="0.5" stop-color="#D887FE"/>
<stop offset="1" stop-color="#B448E7"/>
</radialGradient>
<radialGradient id="paint5_radial_282_9" cx="0" cy="0" r="1" gradientUnits="userSpaceOnUse" gradientTransform="translate(246 195) rotate(-50.0636) scale(168.241 199.193)">
<stop stop-color="#72FF88"/>
<stop offset="1" stop-color="#094813"/>
</radialGradient>
</defs>
</svg>
