<svg width="23" height="23" viewBox="0 0 23 23" fill="none" xmlns="http://www.w3.org/2000/svg">
<path d="M0.0128148 22.9975C0.556162 22.3717 1.09951 21.7409 1.64798 21.1175C4.03922 18.4015 6.43303 15.683 8.82683 12.9669C8.87553 12.9093 8.92423 12.8518 8.98061 12.7842C5.98964 8.53613 3.00379 4.2906 0 0.0200261C0.0871406 0.0125163 0.143526 0.00500653 0.199911 0.00500653C2.3528 0.00500653 4.50568 0.0075098 6.65857 0C6.81235 0 6.88924 0.0550718 6.96869 0.170222C8.85759 2.86123 10.7491 5.54974 12.6405 8.23574C12.6867 8.30333 12.7353 8.36591 12.7994 8.45353C13.1916 8.01045 13.5709 7.58239 13.9476 7.15183C15.9826 4.84382 18.0176 2.53581 20.0449 0.222791C20.1884 0.0575751 20.3345 -0.00500653 20.5524 0.00250327C21.1085 0.0175229 21.6647 0.0075098 22.2747 0.0075098C19.3965 3.27427 16.5516 6.50348 13.7016 9.7377C13.7503 9.8103 13.7913 9.87288 13.8349 9.93546C16.8489 14.2185 19.8629 18.5041 22.8744 22.7872C22.9205 22.8548 22.959 22.9274 23 22.9975C20.7164 22.9975 18.4328 22.9975 16.1492 22.9975C16.1236 22.9524 16.098 22.9049 16.0672 22.8623C14.0425 19.9836 12.0177 17.1048 9.99298 14.2286C9.95966 14.181 9.91865 14.1384 9.87252 14.0859C9.80076 14.166 9.73925 14.2311 9.6803 14.2987C8.04769 16.1536 6.41253 18.006 4.77992 19.8634C3.86238 20.9073 2.9474 21.9536 2.02986 23C1.36093 22.9975 0.686873 22.9975 0.0128148 22.9975ZM2.76031 1.49445C2.82951 1.59708 2.86795 1.65966 2.91152 1.72225C7.6043 8.2808 12.2996 14.8369 16.9899 21.3979C17.0847 21.5306 17.1846 21.5756 17.3461 21.5731C18.2201 21.5656 19.0915 21.5706 19.9655 21.5681C20.0372 21.5681 20.1115 21.5606 20.2243 21.5556C20.1474 21.443 20.0885 21.3604 20.0295 21.2753C15.4239 14.8419 10.8157 8.40847 6.22287 1.96506C5.9717 1.61461 5.72821 1.46191 5.28482 1.48444C4.45955 1.52449 3.63428 1.49445 2.76031 1.49445Z" fill="#039BE5"/>
</svg>
